<svg id="svg-reference" xmlns="http://www.w3.org/2000/svg" xmlns:xlink="http://www.w3.org/1999/xlink" width="183.277" height="75.38" viewBox="0 0 183.277 75.38"><defs><linearGradient id="a" y1="0.5" x2="1" y2="0.5" gradientUnits="objectBoundingBox"><stop offset="0" stop-color="#0082be"/><stop offset="0.016" stop-color="#0080bc"/><stop offset="0.147" stop-color="#0074b0"/><stop offset="0.287" stop-color="#0071ad"/><stop offset="0.402" stop-color="#00609f"/><stop offset="0.531" stop-color="#005496"/><stop offset="0.669" stop-color="#005194"/><stop offset="1" stop-color="#004485"/></linearGradient><linearGradient id="b" x1="0.5" y1="1" x2="0.5" y2="0" xlink:href="#a"/></defs><g transform="translate(-92.333 -689.271)"><rect width="150.76" height="60.304" rx="30.152" transform="translate(124.85 698.649)" fill="url(#a)"/><rect width="150.76" height="60.304" rx="30.152" transform="translate(124.85 694.968)" fill="#fff"/><circle cx="37.69" cy="37.69" r="37.69" transform="translate(92.333 689.271)" fill="#fff"/><circle cx="33.921" cy="33.921" r="33.921" transform="translate(96.102 693.04)" fill="url(#b)"/><path d="M123.249,707.76c-.525,0-.673.425-.673.95V712.2a.981.981,0,0,0,.059.336l-1.941.357a.84.84,0,0,0-.653.931v5.98h-4.813l-1.406-5.743c-.142-.957-1.483-1.881-2.812-1.881a2.875,2.875,0,0,0-2.851,2.891,2.92,2.92,0,0,0,1.307,2.436.936.936,0,0,0,1.307-.257.96.96,0,0,0-.258-1.327,1.025,1.025,0,0,1-.455-.852.961.961,0,0,1,.95-.99,1.527,1.527,0,0,1,.971.4l5.624,23.19.436,2.278a.948.948,0,0,0,.93.772h1.882a4.6,4.6,0,0,0,9.189,0h5.446a4.6,4.6,0,0,0,9.189,0h2.02c.524,0,1.227-.425,1.227-.951v-6.337c0-.525-.7-.95-1.227-.95h-4.318l5.446-11.308a.976.976,0,0,0-.059-.931.957.957,0,0,0-.812-.436h-4.238l-3.05-6.891a.967.967,0,0,0-.534-.515.948.948,0,0,0-.733.039l-5.743,2.634a.985.985,0,0,0,.059-.336V708.71c0-.525-.7-.95-1.228-.95Zm1.228,1.9h6.337v1.525a.88.88,0,0,0-.416-.04l-5.921,1.07v-2.555Zm4.871,3.624-1.643,5.882h-5.763v-4.555Zm8.972,1.267,2.317,5.248h-6.278l-1.426-2.772Zm-7.506.179a.938.938,0,0,0,.634.891l-.218.1a.937.937,0,0,0-.495.554.965.965,0,0,0,.039.753l1.446,2.772h-2.713Zm-14.952,6.97h29.587l-5.169,10.774H118.5Zm3.05,12.675h27.111v4.436H144.36a4.593,4.593,0,0,0-8.556.02.985.985,0,0,0-.2-.02h-5.881a4.593,4.593,0,0,0-8.555.02.936.936,0,0,0-.139-.02h-1.188l-.4-1.664Zm6.535,3.426a2.693,2.693,0,1,1-2.693,2.693A2.708,2.708,0,0,1,125.447,737.8Zm14.635,0a2.693,2.693,0,1,1-2.693,2.693A2.708,2.708,0,0,1,140.082,737.8Z" fill="#fff"/><text transform="translate(182.19 727.872)" fill="#262626" font-size="24.122" font-family="Roboto-Medium, Roboto" font-weight="500"><tspan x="0" y="0">MUA</tspan><tspan font-size="15" font-family="Roboto-Condensed, Roboto" font-weight="400"><tspan x="0" y="15.076">TRÁI PHIẾU</tspan></tspan></text></g></svg>