<svg xmlns="http://www.w3.org/2000/svg" xmlns:xlink="http://www.w3.org/1999/xlink" width="183.277" height="75.38" viewBox="0 0 183.277 75.38"><defs><linearGradient id="a" x1="0.5" x2="0.5" y2="1" gradientUnits="objectBoundingBox"><stop offset="0" stop-color="#d46154"/><stop offset="0.048" stop-color="#d25046"/><stop offset="0.124" stop-color="#cf3e37"/><stop offset="0.203" stop-color="#ce322e"/><stop offset="0.287" stop-color="#ce2f2b"/><stop offset="0.357" stop-color="#c82823"/><stop offset="0.508" stop-color="#c11f17"/><stop offset="0.669" stop-color="#bf1c14"/><stop offset="1" stop-color="#cb0017"/></linearGradient><linearGradient id="b" y1="1" y2="0" xlink:href="#a"/></defs><g transform="translate(-92.333 -800.772)"><rect width="150.76" height="60.304" rx="30.152" transform="translate(124.85 810.151)" fill="url(#a)"/><rect width="150.76" height="60.304" rx="30.152" transform="translate(124.85 806.47)" fill="#fff"/><circle cx="37.69" cy="37.69" r="37.69" transform="translate(92.333 800.772)" fill="#fff"/><circle cx="33.921" cy="33.921" r="33.921" transform="translate(96.102 804.541)" fill="url(#b)"/><path d="M111.712,842.785,125.7,856.774c2.264,2.264,5.741,2.506,7.763.485l.081-.081,16.414-19.649a.992.992,0,0,0-.041-1.334l-3.355-3.356a7.719,7.719,0,1,0-10.916-10.916l-3.356-3.355a.992.992,0,0,0-1.334-.041l-19.649,16.415-.08.081C109.205,837.044,109.448,840.521,111.712,842.785Zm33.435-19.447a5.736,5.736,0,0,1,0,8.086l-8.086-8.086A5.736,5.736,0,0,1,145.147,823.338Zm-13.625-2.708,2.749,2.749-2.425,2.426a.972.972,0,0,0,1.374,1.374l2.426-2.426,8.126,8.127-2.426,2.426a.972.972,0,0,0,1.375,1.374l2.426-2.426L147.9,837l-15.848,18.921c-1.213,1.212-3.477.97-4.973-.526L113.086,841.41c-1.5-1.495-1.7-3.719-.525-4.972Zm-10.148,17.506h16.091a.97.97,0,1,1,0,1.94H121.374a.966.966,0,0,1-.97-.97A.933.933,0,0,1,121.374,838.136Zm10.8,4.245a3.319,3.319,0,1,0,1.011,2.385A3.579,3.579,0,0,0,132.169,842.381Zm-2.426,3.8a1.34,1.34,0,0,1-.97-.4,1.38,1.38,0,0,1-.4-.971h0a1.338,1.338,0,0,1,.4-.97,1.379,1.379,0,0,1,.97-.4,1.344,1.344,0,0,1,.971.4,1.379,1.379,0,0,1,.4.97,1.381,1.381,0,0,1-1.375,1.375Zm-4.083-12.735a3.467,3.467,0,0,0,1.011,2.385,3.574,3.574,0,0,0,2.385,1.011,3.355,3.355,0,1,0,0-6.711,3.3,3.3,0,0,0-3.4,3.315Zm3.355-1.415a1.415,1.415,0,1,1-1.415,1.415h0A1.381,1.381,0,0,1,129.015,832.031Z" fill="#fff"/><text transform="translate(182.191 839.375)" fill="#262626" font-size="24.122" font-family="Roboto-Medium, Roboto" font-weight="500"><tspan x="0" y="0">BÁN</tspan><tspan font-size="15" font-family="Roboto-Condensed, Roboto" font-weight="400"><tspan x="0" y="15.076">TRÁI PHIẾU</tspan></tspan></text></g></svg>