<svg xmlns="http://www.w3.org/2000/svg" width="22.252" height="22.25" viewBox="0 0 22.252 22.25"><g transform="translate(-31.998 -1065.507)"><g transform="translate(31.998 1065.507)"><g transform="translate(0 13.47)"><path d="M51.99,1082.67l0-.013a1.808,1.808,0,0,0-2.448-.9l-3.028.837a1.983,1.983,0,0,0-1.229-1.21l-.011,0-3.329-1.129a3.432,3.432,0,0,0-2.769-1.274,3.475,3.475,0,0,0-2.714,1.627H32.433a.435.435,0,0,0-.435.435v5.478a.435.435,0,0,0,.435.435h2.584a.434.434,0,0,0,.434-.435v-.375h1.212a.434.434,0,0,0,.434-.434v-.125a3.077,3.077,0,0,1,1.588.569,25.986,25.986,0,0,0,2.61,1.333l.019.008a3.89,3.89,0,0,0,1.4.264,3.455,3.455,0,0,0,1.44-.309l6.693-2.4.035-.014A1.854,1.854,0,0,0,51.99,1082.67Zm-17.408,3.41H32.868v-4.61h1.714Zm1.646-.81h-.777v-3.8h.777Zm14.305-1.032-6.689,2.4-.02.007-.017.008a2.818,2.818,0,0,1-2.164.037,25.013,25.013,0,0,1-2.523-1.289,3.913,3.913,0,0,0-2.022-.687v-3.5a2.685,2.685,0,0,1,2.072-1.366,2.505,2.505,0,0,1,2.127,1,.439.439,0,0,0,.231.184l3.454,1.172a.974.974,0,0,1,.709,1.15.834.834,0,0,1-.4.508.846.846,0,0,1-.638.077l-3.894-1.234a.434.434,0,1,0-.263.828l3.9,1.236.013,0a1.733,1.733,0,0,0,.472.066,1.716,1.716,0,0,0,1.647-1.247c.01-.035.019-.07.027-.106l3.264-.9c.471-.161,1.089-.219,1.365.415C51.468,1083.737,50.727,1084.146,50.534,1084.238Z" transform="translate(-31.998 -1078.974)" fill="#fff"/></g><g transform="translate(1.291)"><path d="M53.815,1066.979H51.232a.434.434,0,0,0-.435.434v.376H49.585a.435.435,0,0,0-.435.434v.125a3.075,3.075,0,0,1-1.587-.569,26.1,26.1,0,0,0-2.611-1.333l-.019-.008a3.7,3.7,0,0,0-2.838.044l-1.748.626-1.474-1.474a.436.436,0,0,0-.615,0l-4.839,4.839a.431.431,0,0,0,0,.615l8.269,8.269a.471.471,0,0,0,.615,0l4.419-4.418c.114.01.234.015.357.015a3.476,3.476,0,0,0,2.714-1.627h4.023a.435.435,0,0,0,.435-.435v-5.479A.434.434,0,0,0,53.815,1066.979Zm-15.25-.423.99.991a1.9,1.9,0,0,1-1.981,0Zm-3.234,5.215-.991-.99.991-.991a1.9,1.9,0,0,1,0,1.981ZM42,1078.435l-.991-.99a1.894,1.894,0,0,1,1.981,0Zm1.616-1.616a2.761,2.761,0,0,0-3.233,0l-4.422-4.422a2.764,2.764,0,0,0,0-3.233l.991-.991a2.765,2.765,0,0,0,3.233,0l.94.94a1.719,1.719,0,0,0-1.293.947A1.721,1.721,0,0,0,41,1072.718c1.056.3,1.672.408,1.672.408l1.467.5a2.775,2.775,0,0,0,.46,2.2Zm1.618-1.619a1.906,1.906,0,0,1-.277-.9,3.351,3.351,0,0,0,.766.415Zm3.921-2.481a2.685,2.685,0,0,1-2.072,1.366,3.078,3.078,0,0,1-.453-.032h0a2.487,2.487,0,0,1-1.609-.881l-.053-.071a.431.431,0,0,0-.239-.2l-3.456-1.172a.975.975,0,0,1-.709-1.15h0a.846.846,0,0,1,1.04-.583l3.894,1.234a.435.435,0,1,0,.263-.829l-3.1-.981-.027-.027h0l-1.6-1.6,1.377-.493.015-.006.005,0,.018-.007a2.81,2.81,0,0,1,2.163-.037,25.213,25.213,0,0,1,2.524,1.288,3.91,3.91,0,0,0,2.021.688Zm1.646-.262H50.02v-3.8H50.8Zm2.584,0H51.666v-4.609h1.715Z" transform="translate(-33.289 -1065.507)" fill="#fff"/></g></g></g></svg>