<svg id="svg-reference" xmlns="http://www.w3.org/2000/svg" width="17.753" height="22.55" viewBox="0 0 17.753 22.55"><g transform="translate(-127.037 -1066.082)"><path d="M143.249,1073.265a.355.355,0,0,0-.36-.313h-.708V1066.6a.345.345,0,0,0-.341-.363h-5.086a.384.384,0,0,0-.386.363v2.044h-1.726v-.909a.344.344,0,0,0-.341-.362h-4.313a.383.383,0,0,0-.386.362v5.222h-.663a.355.355,0,0,0-.36.313l-1.369,11.89a2.876,2.876,0,0,0,.731,2.27,3.212,3.212,0,0,0,2.4,1.057h11.139a3.215,3.215,0,0,0,2.4-1.059,2.871,2.871,0,0,0,.73-2.268Zm-6.154-6.306h4.359v5.993h-3.5V1069a.344.344,0,0,0-.341-.364h-.521Zm.136,5.993H133.28v-3.587h3.951Zm-6.9-4.858h3.587v.545h-.977a.383.383,0,0,0-.386.364v3.95h-2.224Zm13.016,18.845a2.491,2.491,0,0,1-1.862.817H130.345a2.491,2.491,0,0,1-1.862-.817,2.146,2.146,0,0,1-.551-1.7l1.332-11.563h13.3l1.331,11.563A2.146,2.146,0,0,1,143.345,1086.939Z" transform="translate(0)" fill="" stroke="" stroke-miterlimit="10" stroke-width="0.3"/><path d="M140.193,1074.5a.37.37,0,0,0-.37.37v3.822a3.842,3.842,0,0,1-7.668,0v-3.822a.369.369,0,1,0-.738,0v3.822a4.579,4.579,0,0,0,9.146,0v-3.822A.37.37,0,0,0,140.193,1074.5Z" transform="translate(0.058 0.181)" fill="" stroke="" stroke-miterlimit="10" stroke-width="0.3"/></g></svg>