<svg xmlns="http://www.w3.org/2000/svg" width="22.3" height="22.55" viewBox="0 0 22.3 22.55"><g transform="translate(-322.747 -1065.568)"><g transform="translate(322.897 1065.718)"><path d="M343.9,1073.679h-.24v-1.008a1,1,0,0,0-1-1.008h-4.606l.7-.271.013-.407.006-.678-.278-.554-.789-.246a4.265,4.265,0,0,0-.344-.834l.378-.765a.318.318,0,0,0-.069-.382l-.721-.73a.321.321,0,0,0-.379-.07l-.756.382a4.158,4.158,0,0,0-.825-.347l-.275-.8a.33.33,0,0,0-.309-.244h-1.031a.331.331,0,0,0-.31.244l-.275.8a4.159,4.159,0,0,0-.825.347l-.756-.382a.311.311,0,0,0-.378.07l-.722.73a.328.328,0,0,0-.069.382l.378.765a4.259,4.259,0,0,0-.343.834l-.778.309-.372.532.031.814.775.5h-4.606a1,1,0,0,0-1,1.008v1.008h-.241a1,1,0,0,0-1,1.008v12.272a1,1,0,0,0,1,1.008H343.9a1,1,0,0,0,1-1.008v-12.272A1,1,0,0,0,343.9,1073.679Zm.344,1.008v2.677a3.385,3.385,0,0,1-2.991-3.025H343.9A.4.4,0,0,1,344.244,1074.688Zm-13.509-.313.1.1a.32.32,0,0,0,.378.07l.756-.383a4.171,4.171,0,0,0,.825.348l.275.8a.332.332,0,0,0,.31.243h1.031a.33.33,0,0,0,.309-.243l.275-.8a4.17,4.17,0,0,0,.825-.348l.756.383a.314.314,0,0,0,.379-.07l.1-.1h3.506a4,4,0,0,0,3.644,3.685v5.528a4,4,0,0,0-3.644,3.686H327.228a4,4,0,0,0-3.643-3.686v-5.528a4,4,0,0,0,3.643-3.685Zm12.272-1.7v1.008h-5.294a.322.322,0,0,0,.034-.348l-.378-.765c.034-.07.069-.174.1-.243h5.191A.371.371,0,0,1,343.007,1072.671ZM330.46,1070.1a.3.3,0,0,0,.206-.244,2.845,2.845,0,0,1,.412-1.008.262.262,0,0,0,0-.312l-.343-.7.378-.382.687.348a.326.326,0,0,0,.31,0,4.274,4.274,0,0,1,1-.418.362.362,0,0,0,.24-.208l.241-.765h.55l.24.765a.3.3,0,0,0,.241.208,2.78,2.78,0,0,1,1,.418.254.254,0,0,0,.309,0l.722-.348.378.382-.343.7a.331.331,0,0,0,0,.313,4.439,4.439,0,0,1,.412,1.008.368.368,0,0,0,.206.244l.757.243v.556l-.722.244a.3.3,0,0,0-.207.243,2.446,2.446,0,0,1-.412.974.262.262,0,0,0,0,.313l.344.73-.378.382-.722-.347a.323.323,0,0,0-.31,0,4.308,4.308,0,0,1-1,.417.362.362,0,0,0-.24.208l-.241.766h-.55l-.24-.766a.3.3,0,0,0-.241-.208,2.777,2.777,0,0,1-1-.417.254.254,0,0,0-.309,0l-.688.347-.378-.382.344-.73a.333.333,0,0,0,0-.312,4.841,4.841,0,0,1-.413-.974.364.364,0,0,0-.206-.243l-.756-.244v-.556Zm-5.672,2.572a.346.346,0,0,1,.344-.347h5.19c.035.069.069.173.1.243l-.378.765a.322.322,0,0,0,.035.348h-5.294Zm-.894,1.7h2.647a3.384,3.384,0,0,1-2.991,3.024v-2.677A.346.346,0,0,1,323.894,1074.375Zm-.344,12.584v-2.676a3.383,3.383,0,0,1,2.991,3.024h-2.647A.372.372,0,0,1,323.55,1086.96Zm20.35.348h-2.647a3.384,3.384,0,0,1,2.991-3.024v2.676A.372.372,0,0,1,343.9,1087.307Z" transform="translate(-322.897 -1065.718)" fill="#fff" stroke="#fff" stroke-miterlimit="10" stroke-width="0.3"/><path d="M333.9,1072.525a1.959,1.959,0,0,0,1.96-1.96,1.93,1.93,0,0,0-1.96-1.925,1.959,1.959,0,0,0-1.959,1.96A1.929,1.929,0,0,0,333.9,1072.525Zm0-3.232a1.269,1.269,0,0,1,1.272,1.272,1.272,1.272,0,1,1-2.544,0A1.269,1.269,0,0,1,333.9,1069.293Z" transform="translate(-322.897 -1065.718)" fill="#fff" stroke="#fff" stroke-miterlimit="10" stroke-width="0.3"/></g><path d="M334.243,1081.15l3.16-2.37-3.16-2.37v1.185h-2.667v.593h3.259v-.593l1.58,1.185-1.58,1.185v-.592h-4.444v.592h3.852Z" transform="translate(0 0.155)" fill="#fff" stroke="#fff" stroke-miterlimit="10" stroke-width="0.3"/><path d="M333.552,1081.349l-3.161,2.37,3.161,2.371v-1.185h2.666v-.593h-3.259v.593l-1.58-1.186,1.58-1.185v.593H337.4v-.593h-3.851Z" transform="translate(0 0.25)" fill="#fff" stroke="#fff" stroke-miterlimit="10" stroke-width="0.3"/></g></svg>