<svg xmlns="http://www.w3.org/2000/svg" width="19.957" height="22.25" viewBox="0 0 19.957 22.25"><g transform="translate(-217.457 -1065.075)"><g transform="translate(217.457 1065.075)"><path d="M218.07,1085.464c1.027,1.228,3.464,1.85,7.293,1.85,4.546,0,9.656.28,11.439-1.849a1.88,1.88,0,0,0,.486-1.364c.89-5.1-3.156-9.8-4.926-11.574a1.674,1.674,0,0,0,.948-1.488v-.327a1.684,1.684,0,0,0-1.069-1.551l.667-.768c1.191-1.3.727-2.444.354-2.822a1.5,1.5,0,0,0-1.251-.495,13.51,13.51,0,0,0-4.575,1.477,13.555,13.555,0,0,0-4.583-1.475,1.478,1.478,0,0,0-1.21.45c-.413.422-.877,1.563.306,2.855l.678.781a1.688,1.688,0,0,0-1.066,1.55v.327a1.674,1.674,0,0,0,.949,1.488c-1.77,1.777-5.816,6.479-4.927,11.573A1.889,1.889,0,0,0,218.07,1085.464Zm4.427-19.242c.011-.015.1-.066.356-.066a13.679,13.679,0,0,1,4.319,1.482.628.628,0,0,0,.549-.01,13.538,13.538,0,0,1,4.29-1.471c.253,0,.346.053.387.1.08.089.437.582-.341,1.434l-1.163,1.337h-6.922l-1.173-1.348C222.03,1066.838,222.388,1066.346,222.5,1066.222Zm9.692,4.489v.327a.618.618,0,0,1-.63.605h-8.248a.618.618,0,0,1-.629-.605v-.327a.617.617,0,0,1,.629-.6h.385c.006,0,.011,0,.017,0h7.439c.006,0,.011,0,.017,0h.39A.618.618,0,0,1,232.189,1070.711Zm-8.3,2.013h7.086c.967.9,6.164,6,5.191,11.268a.641.641,0,0,0,0,.191.868.868,0,0,1-.28.648c-.475.525-1.928,1.4-6.333,1.4v.54l-.048-.54h-4.2c-4.4,0-5.859-.88-6.333-1.4a.9.9,0,0,1-.284-.629.5.5,0,0,0,.005-.21C217.728,1078.72,222.925,1073.62,223.893,1072.724Z" transform="translate(-217.457 -1065.075)"/><text transform="translate(7.123 17.708)" font-size="10.935" font-family="FranklinGothic-DemiCond, Franklin Gothic" font-weight="300"><tspan x="0" y="0">$</tspan></text></g></g></svg>